<?xml version="1.0" standalone="no"?>
<!DOCTYPE svg PUBLIC "-//W3C//DTD SVG 20010904//EN"
 "http://www.w3.org/TR/2001/REC-SVG-20010904/DTD/svg10.dtd">
<svg version="1.0" xmlns="http://www.w3.org/2000/svg"
 width="32.000000pt" height="32.000000pt" viewBox="0 0 32.000000 32.000000"
 preserveAspectRatio="xMidYMid meet">

<g transform="translate(0.000000,32.000000) scale(0.100000,-0.100000)"
fill="#000000" stroke="none">
<path d="M60 280 c0 -6 40 -10 100 -10 60 0 100 4 100 10 0 6 -40 10 -100 10
-60 0 -100 -4 -100 -10z"/>
<path d="M85 200 c-8 -14 3 -30 21 -30 8 0 14 9 14 20 0 21 -24 28 -35 10z"/>
<path d="M200 190 c0 -15 5 -20 18 -18 9 2 17 10 17 18 0 8 -8 16 -17 18 -13
2 -18 -3 -18 -18z"/>
<path d="M14 39 c-14 -24 18 -29 152 -27 116 3 139 6 139 18 0 23 -101 27
-126 4 -18 -16 -20 -16 -37 -1 -21 19 -117 24 -128 6z"/>
</g>
</svg>
